<svg xmlns="http://www.w3.org/2000/svg" width="495" height="496" fill="none"><path fill="#C2D6DF" d="M14.288 233.472 376.12 53.145l-24.748 403.519L14.288 233.472z"/><path stroke="#293C5A" stroke-width="3" d="M113.95 330.451c11.019-39.276 50.499-107.344 120.263-65.416 69.765 41.928 119.349-36.988 135.42-81.687"/><circle cx="112.451" cy="330.332" r="6.583" fill="#FCDEC4" transform="rotate(-3.587 112.451 330.332)"/><circle cx="182.402" cy="252.749" r="6.583" fill="#FCDEC4" transform="rotate(-3.587 182.402 252.749)"/><circle cx="278.999" cy="277.335" r="6.583" fill="#FCDEC4" transform="rotate(-3.587 278.999 277.335)"/><circle cx="368.132" cy="183.229" r="6.583" fill="#FCDEC4" transform="rotate(-3.587 368.132 183.229)"/><path fill="#1F8360" d="M295.363 93.5c0 15.435 13.198 24.875 29.159 27.946 15.815 3.043 29.16-12.511 29.16-27.945 0-15.434-13.113-29.92-29.16-28.56-18.109 1.536-29.159 13.126-29.159 28.56z"/><path fill="#fff" d="M290 90.148c0 15.434 13.198 24.875 29.159 27.946 15.814 3.043 29.159-12.512 29.159-27.946 0-15.433-13.112-29.92-29.159-28.56C301.049 63.125 290 74.716 290 90.149z"/><ellipse cx="318.849" cy="81.578" fill="#1F8360" rx="5.788" ry="6.002"/><path fill="#1F8360" d="M308.014 103.49c-.548-6.964 4.653-13.053 11.617-13.602 6.963-.548 13.053 4.653 13.601 11.617l.017.213-25.218 1.986-.017-.214z"/><path fill="#F8BA32" d="m233.722 131.228-49.812-3.049c-1.431 23.379-9.108 39.886-12.768 45.218l49.813 3.049c7.232-4.891 12.519-33.9 12.767-45.218z"/><path stroke="#293C5A" stroke-linecap="round" stroke-width="2" d="m188.514 140.331 30.131 2.127m-31.194 4.963 22.687 1.772"/><path fill="#F8BA32" d="m287.509 163.753-49.202 8.353c3.921 23.092.197 40.913-2.155 46.936l49.201-8.353c5.932-6.406 4.486-35.858 2.156-46.936z"/><path stroke="#293C5A" stroke-linecap="round" stroke-width="2" d="m245.551 182.893 29.826-4.777m-29.25 11.923 22.496-3.431"/><g filter="url(#a)"><rect width="170.309" height="108.472" x="257.928" y="307.5" fill="#fff" rx="10"/></g><rect width="131.007" height="2.132" x="271.598" y="371.21" fill="#fff" opacity=".2" rx="1.066"/><rect width="144.677" height="2.132" x="271.029" y="355.579" fill="#fff" opacity=".2" rx="1.066"/><rect width="144.677" height="2.368" x="271.029" y="359.368" fill="#fff" opacity=".2" rx="1.184"/><rect width="144.677" height="2.132" x="271.029" y="363.394" fill="#fff" opacity=".2" rx="1.066"/><rect width="144.677" height="2.368" x="271.029" y="367.184" fill="#fff" opacity=".2" rx="1.184"/><rect width="55.251" height="2.368" x="271.598" y="347.289" fill="#fff" opacity=".2" rx="1.184"/><rect width="92.275" height="10.895" x="271.598" y="379.973" fill="#fff" opacity=".8" rx="5.447"/><rect width="151.513" height="31.5" x="267.611" y="310.816" fill="#fff" fill-opacity=".1" rx="10"/><path fill="#EE605D" d="M257.928 317.5c0-5.523 4.477-10 10-10h150.309c5.523 0 10 4.477 10 10v3.47H257.928v-3.47z"/><circle cx="269.271" cy="314.59" r="1.418" fill="#fff"/><circle cx="274.943" cy="314.59" r="1.418" fill="#fff"/><circle cx="280.615" cy="314.59" r="1.418" fill="#fff"/><rect width="57.438" height="2.478" x="267.852" y="328.769" fill="#FCDEC4" rx="1.239"/><rect width="57.438" height="2.478" x="332.469" y="341.982" fill="#FCDEC4" rx="1.239"/><rect width="57.438" height="2.478" x="267.852" y="341.982" fill="#FCDEC4" rx="1.239"/><rect width="28.719" height="2.478" x="332.469" y="328.769" fill="#FCDEC4" rx="1.239"/><rect width="28.719" height="2.478" x="339.648" y="335.376" fill="#FCDEC4" rx="1.239"/><rect width="14.359" height="2.478" x="267.852" y="335.376" fill="#FCDEC4" rx="1.239"/><rect width="50.542" height="2.127" x="368.32" y="328.769" fill="#FCDEC4" rx="1.063"/><rect width="43.078" height="2.478" x="289.391" y="335.376" fill="#FCDEC4" rx="1.239"/><rect width="43.078" height="2.478" x="375.547" y="335.376" fill="#FCDEC4" rx="1.239"/><rect width="21.573" height="2.127" x="397.289" y="342.239" fill="#FCDEC4" rx="1.063"/><rect width="57.438" height="2.478" x="267.852" y="368.409" fill="#FCDEC4" rx="1.239"/><rect width="57.438" height="2.478" x="332.469" y="381.622" fill="#FCDEC4" rx="1.239"/><rect width="57.438" height="2.478" x="267.852" y="381.622" fill="#FCDEC4" rx="1.239"/><rect width="28.719" height="2.478" x="332.469" y="368.409" fill="#FCDEC4" rx="1.239"/><rect width="28.719" height="2.478" x="339.648" y="375.016" fill="#FCDEC4" rx="1.239"/><rect width="14.359" height="2.478" x="267.852" y="375.016" fill="#FCDEC4" rx="1.239"/><rect width="50.542" height="2.127" x="368.32" y="368.471" fill="#FCDEC4" rx="1.063"/><rect width="43.078" height="2.478" x="289.391" y="375.016" fill="#FCDEC4" rx="1.239"/><rect width="43.078" height="2.478" x="375.547" y="375.016" fill="#FCDEC4" rx="1.239"/><rect width="21.573" height="2.127" x="397.289" y="381.942" fill="#FCDEC4" rx="1.063"/><rect width="57.438" height="2.478" fill="#FCDEC4" rx="1.239" transform="matrix(-1 0 0 1 418.625 348.589)"/><rect width="57.438" height="2.478" fill="#FCDEC4" rx="1.239" transform="matrix(-1 0 0 1 354.008 361.803)"/><rect width="57.438" height="2.478" fill="#FCDEC4" rx="1.239" transform="matrix(-1 0 0 1 418.625 361.803)"/><rect width="28.719" height="2.478" fill="#FCDEC4" rx="1.239" transform="matrix(-1 0 0 1 354.008 348.589)"/><rect width="28.719" height="2.478" fill="#FCDEC4" rx="1.239" transform="matrix(-1 0 0 1 346.83 355.196)"/><rect width="14.359" height="2.478" fill="#FCDEC4" rx="1.239" transform="matrix(-1 0 0 1 418.625 355.196)"/><rect width="43.078" height="2.478" fill="#FCDEC4" rx="1.239" transform="matrix(-1 0 0 1 318.109 348.589)"/><rect width="43.078" height="2.478" fill="#FCDEC4" rx="1.239" transform="matrix(-1 0 0 1 397.086 355.196)"/><rect width="43.078" height="2.478" fill="#FCDEC4" rx="1.239" transform="matrix(-1 0 0 1 310.93 355.196)"/><rect width="14.359" height="2.478" fill="#FCDEC4" rx="1.239" transform="matrix(-1 0 0 1 289.391 361.803)"/><rect width="57.438" height="2.478" fill="#FCDEC4" rx="1.239" transform="matrix(-1 0 0 1 418.625 388.229)"/><rect width="57.438" height="2.478" fill="#FCDEC4" rx="1.239" transform="matrix(-1 0 0 1 354.008 401.442)"/><rect width="57.438" height="2.478" fill="#FCDEC4" rx="1.239" transform="matrix(-1 0 0 1 418.625 401.442)"/><rect width="28.719" height="2.478" fill="#FCDEC4" rx="1.239" transform="matrix(-1 0 0 1 354.008 388.229)"/><rect width="28.719" height="2.478" fill="#FCDEC4" rx="1.239" transform="matrix(-1 0 0 1 346.83 394.836)"/><rect width="14.359" height="2.478" fill="#FCDEC4" rx="1.239" transform="matrix(-1 0 0 1 418.625 394.836)"/><rect width="43.078" height="2.478" fill="#FCDEC4" rx="1.239" transform="matrix(-1 0 0 1 318.109 388.229)"/><rect width="43.078" height="2.478" fill="#FCDEC4" rx="1.239" transform="matrix(-1 0 0 1 397.086 394.836)"/><rect width="43.078" height="2.478" fill="#FCDEC4" rx="1.239" transform="matrix(-1 0 0 1 310.93 394.836)"/><rect width="14.359" height="2.478" fill="#FCDEC4" rx="1.239" transform="matrix(-1 0 0 1 289.391 401.442)"/><path fill="#EBEBEB" fill-rule="evenodd" d="M124.757 208.751c24.147-12.241 33.799-41.74 21.558-65.887s-41.74-33.799-65.887-21.558c-24.148 12.241-33.8 41.739-21.558 65.887 12.24 24.147 41.739 33.799 65.887 21.558zm-3.339-6.586c20.51-10.398 28.708-35.453 18.311-55.963-10.397-20.51-35.453-28.708-55.963-18.311-20.51 10.397-28.708 35.453-18.31 55.963 10.397 20.51 35.452 28.708 55.962 18.311z" clip-rule="evenodd"/><path fill="#EBEBEB" fill-rule="evenodd" d="m127.285 201.49-9.879 5.008 59.353 117.081 9.879-5.008-59.353-117.081zm49.474 122.089c2.081.325 6.97-.222 9.879-5.008l-9.879 5.008z" clip-rule="evenodd"/><defs><filter id="a" width="210.309" height="148.472" x="237.928" y="291.5" color-interpolation-filters="sRGB" filterUnits="userSpaceOnUse"><feFlood flood-opacity="0" result="BackgroundImageFix"/><feColorMatrix in="SourceAlpha" result="hardAlpha" values="0 0 0 0 0 0 0 0 0 0 0 0 0 0 0 0 0 0 127 0"/><feOffset dy="4"/><feGaussianBlur stdDeviation="10"/><feComposite in2="hardAlpha" operator="out"/><feColorMatrix values="0 0 0 0 0 0 0 0 0 0 0 0 0 0 0 0 0 0 0.2 0"/><feBlend in2="BackgroundImageFix" result="effect1_dropShadow_509_1093"/><feBlend in="SourceGraphic" in2="effect1_dropShadow_509_1093" result="shape"/></filter></defs></svg>